<svg xmlns="http://www.w3.org/2000/svg" xmlns:xlink="http://www.w3.org/1999/xlink" width="922" height="575" version="1.1" viewBox="0 0 922 575"><title>Rectangle 4</title><desc>Created with Sketch.</desc><defs><linearGradient id="linearGradient-1" x1="50%" x2="66.458%" y1="8.879%" y2="94.946%"><stop offset="0%" stop-color="#A39AF1"/><stop offset="100%" stop-color="#2B95D8"/></linearGradient><path id="path-2" d="M150.919854,45.508025 C358.867188,-49.2265625 684.856991,28.9682121 793,77.6135238 C973.53125,158.820798 952.15625,418.660156 805.417969,461.3125 C658.679688,503.964844 648.519531,427.320312 453,537.6875 C328.096147,608.193433 165.92607,580.763002 40.7484067,428.425602 C-48.8984375,319.328125 19.1755339,105.526798 150.919854,45.508025 Z"/><rect id="path-4" width="726" height="550" x="336" y="149" rx="9"/><filter id="filter-5" width="111%" height="114.5%" x="-5.5%" y="-6.4%" filterUnits="objectBoundingBox"><feOffset dx="0" dy="5" in="SourceAlpha" result="shadowOffsetOuter1"/><feGaussianBlur in="shadowOffsetOuter1" result="shadowBlurOuter1" stdDeviation="12.5"/><feColorMatrix in="shadowBlurOuter1" type="matrix" values="0 0 0 0 0 0 0 0 0 0 0 0 0 0 0 0 0 0 0.16723279 0"/></filter><linearGradient id="linearGradient-6" x1="80.219%" x2="59.83%" y1="129.072%" y2="62.675%"><stop offset="0%" stop-color="#012F47" stop-opacity=".15"/><stop offset="100%" stop-color="#000" stop-opacity="0"/></linearGradient><path id="path-7" d="M159.34375,39.1529675 C476.229167,-15.6293807 687.447917,-2.80919524 793,77.6135238 C951.328125,198.247602 952.15625,418.660156 805.417969,461.3125 C658.679688,503.964844 648.519531,427.320312 453,537.6875 C322.653646,611.265625 178.679688,568.395833 21.078125,409.078125 L159.34375,39.1529675 Z"/></defs><g id="Main-1920" fill="none" fill-rule="evenodd" stroke="none" stroke-width="1"><g id="Rectangle-4"><g transform="translate(-4.000000, -673.000000) translate(4.000000, 673.000000)"><mask id="mask-3" fill="#fff"><use xlink:href="#path-2"/></mask><use id="Mask" fill="url(#linearGradient-1)" xlink:href="#path-2"/><g mask="url(#mask-3)"><rect id="path-4" width="726" height="550" x="336" y="149" fill="#000" fill-opacity="1" filter="url(#filter-5)" rx="9"/><rect id="path-4" width="726" height="550" x="336" y="149" fill="#FFF" fill-rule="evenodd" rx="9"/></g><rect id="Rectangle-6" width="154" height="65" x="370" y="257" fill="#F6F8FD" mask="url(#mask-3)" rx="5"/><path fill="#F0F3F9" d="M345,149 L1053,149 C1057.97056,149 1062,153.029437 1062,158 L1062,183 L336,183 L336,158 C336,153.029437 340.029437,149 345,149 Z" mask="url(#mask-3)"/><circle id="Oval-4" cx="356.5" cy="166.5" r="5.5" fill="#C5CAD5" mask="url(#mask-3)" opacity=".75"/><circle id="Oval-4" cx="379.5" cy="166.5" r="5.5" fill="#C5CAD5" mask="url(#mask-3)" opacity=".75"/><circle id="Oval-4" cx="402.5" cy="166.5" r="5.5" fill="#C5CAD5" mask="url(#mask-3)" opacity=".75"/><text id="Dashboard" fill="#AEB9BF" font-family="Montserrat-Medium, Montserrat" font-size="24" font-weight="400" line-spacing="23" mask="url(#mask-3)"><tspan x="369" y="237">Dashboard</tspan></text><text id="You-last-sales" fill="#AEB9BF" font-family="Montserrat-Medium, Montserrat" font-size="16" font-weight="400" line-spacing="23" mask="url(#mask-3)"><tspan x="369" y="370">You last sales</tspan></text><rect id="Rectangle-5" width="355" height="11" x="371" y="390" fill="#F0F3F9" mask="url(#mask-3)" rx="5.5"/><rect id="Rectangle-5" width="355" height="11" x="371" y="415" fill="#F0F3F9" mask="url(#mask-3)" rx="5.5"/><rect id="Rectangle-5" width="355" height="11" x="371" y="440" fill="#F0F3F9" mask="url(#mask-3)" rx="5.5"/><text id="You-last-purchases" fill="#AEB9BF" font-family="Montserrat-Medium, Montserrat" font-size="16" font-weight="400" line-spacing="23" mask="url(#mask-3)"><tspan x="369" y="499">You last purchases</tspan></text><rect id="Rectangle-5" width="355" height="11" x="371" y="519" fill="#F0F3F9" mask="url(#mask-3)" rx="5.5"/><rect id="Rectangle-5" width="355" height="11" x="371" y="544" fill="#F0F3F9" mask="url(#mask-3)" rx="5.5"/><rect id="Rectangle-5" width="355" height="11" x="371" y="569" fill="#F0F3F9" mask="url(#mask-3)" rx="5.5"/><text id="569,45" fill="#AEB9BF" font-family="Montserrat-SemiBold, Montserrat" font-size="18" font-weight="500" line-spacing="23" mask="url(#mask-3)"><tspan x="415" y="285">569,45</tspan></text><text id="Your-balance" fill="#AEB9BF" font-family="Montserrat-Medium, Montserrat" font-size="12" font-weight="400" line-spacing="23" mask="url(#mask-3)"><tspan x="407" y="303">Your balance</tspan></text><rect id="Rectangle-6" width="154" height="65" x="554" y="257" fill="#F6F8FD" mask="url(#mask-3)" rx="5"/><text id="79" fill="#AEB9BF" font-family="Montserrat-SemiBold, Montserrat" font-size="18" font-weight="500" line-spacing="23" mask="url(#mask-3)"><tspan x="615" y="285">79</tspan></text><text id="Total-buyers" fill="#AEB9BF" font-family="Montserrat-Medium, Montserrat" font-size="12" font-weight="400" line-spacing="23" mask="url(#mask-3)"><tspan x="591" y="303">Total buyers</tspan></text><rect id="Rectangle-6" width="154" height="65" x="738" y="257" fill="#F6F8FD" mask="url(#mask-3)" rx="5"/><text id="37" fill="#AEB9BF" font-family="Montserrat-SemiBold, Montserrat" font-size="18" font-weight="500" line-spacing="23" mask="url(#mask-3)"><tspan x="801" y="285">37</tspan></text><text id="Total-purchases" fill="#AEB9BF" font-family="Montserrat-Medium, Montserrat" font-size="12" font-weight="400" line-spacing="23" mask="url(#mask-3)"><tspan x="764" y="303">Total purchases</tspan></text><mask id="mask-8" fill="#fff"><use xlink:href="#path-7"/></mask><use id="Mask" fill="url(#linearGradient-6)" xlink:href="#path-7"/></g></g></g></svg>
